<?xml version="1.0" standalone="no"?>
<!DOCTYPE svg PUBLIC "-//W3C//DTD SVG 20010904//EN"
 "http://www.w3.org/TR/2001/REC-SVG-20010904/DTD/svg10.dtd">
<svg version="1.1" xmlns="http://www.w3.org/2000/svg"
 width="456" height="456" viewBox="0 0 456 456">

	<g transform="translate(0.000000,456.000000) scale(0.042000,-0.042000)"
	fill="#ffffff" stroke="none">
		<path d="M7762 8470 c-41 -11 -100 -35 -132 -55 -58 -36 -163 -139 -182 -180
l-10 -22 -78 34 c-104 45 -246 80 -378 93 -74 8 -700 10 -2062 8 l-1955 -4
-115 -28 c-413 -100 -733 -346 -900 -691 -56 -115 -73 -164 -103 -290 -19 -83
-21 -126 -24 -571 l-4 -480 -60 -28 c-86 -39 -162 -118 -206 -213 -30 -65 -37
-92 -41 -166 -11 -195 74 -341 249 -429 l59 -30 0 -1226 c0 -833 4 -1256 11
-1317 56 -453 372 -840 820 -1005 44 -17 124 -39 178 -50 98 -20 134 -20 2269
-20 2384 0 2245 -3 2428 61 391 138 669 441 786 855 l22 79 3 2027 c3 1777 2
2040 -12 2130 -15 106 -53 248 -65 248 -3 0 -19 -13 -35 -30 -16 -16 -35 -30
-43 -30 -13 0 -237 190 -367 312 -33 31 -84 74 -112 95 -29 21 -84 68 -124
103 -81 73 -114 94 -132 84 -6 -4 -9 -4 -6 0 8 9 -5 25 -100 125 -69 72 -71
75 -55 98 22 35 74 63 115 63 32 0 55 -16 210 -152 96 -84 263 -232 372 -330
225 -202 225 -202 328 -151 110 54 208 182 244 319 36 138 0 311 -90 428 -29
39 -218 209 -296 267 -110 82 -264 108 -407 69z m245 -212 c22 -13 96 -72 163
-132 102 -91 127 -118 151 -170 24 -51 29 -74 29 -139 0 -44 -6 -92 -14 -111
-14 -33 -82 -116 -95 -116 -12 0 -146 123 -143 132 1 4 -2 7 -7 6 -5 -2 -81
61 -168 138 -87 78 -188 167 -225 198 -38 32 -68 62 -68 68 0 37 84 108 159
134 61 22 170 18 218 -8z m-934 -130 c37 -8 70 -17 72 -20 10 -9 -49 -68 -67
-68 -11 0 -15 -5 -12 -14 7 -18 -12 -30 -22 -15 -5 8 -3 9 6 4 8 -5 11 -4 7 3
-4 5 -17 7 -30 4 -18 -5 -19 -7 -4 -10 28 -6 19 -21 -10 -17 -16 2 -31 4 -35
4 -16 2 -7 21 9 21 23 0 14 6 -22 14 -16 4 -25 3 -18 -1 19 -14 20 -48 1 -47
-10 1 -18 -2 -18 -7 0 -5 5 -9 11 -9 7 0 10 -12 7 -30 -3 -19 -1 -29 6 -27 6
3 10 10 9 16 -3 13 4 15 11 3 3 -5 -11 -24 -32 -43 -20 -19 -28 -24 -18 -11
11 12 16 25 12 29 -4 4 -11 1 -16 -7 -5 -8 -12 -11 -17 -6 -4 4 0 12 10 17 9
6 17 17 17 24 0 22 -17 18 -23 -5 -3 -14 -11 -18 -28 -15 -12 3 -28 0 -36 -6
-7 -6 -20 -9 -28 -5 -9 3 -15 0 -15 -8 0 -9 7 -12 20 -9 11 3 20 0 20 -6 0 -6
-9 -11 -20 -11 -11 0 -20 -4 -20 -9 0 -5 -8 -8 -17 -7 -10 0 -17 -5 -16 -11 2
-7 -4 -13 -12 -13 -8 0 -15 -5 -15 -11 0 -24 -31 -41 -66 -36 -42 7 -46 -8 -4
-16 27 -6 43 -27 20 -27 -5 0 -10 5 -10 10 0 6 -6 10 -14 10 -9 0 -12 -7 -9
-19 4 -16 -1 -20 -28 -23 -23 -2 -35 -9 -37 -21 -3 -15 1 -18 20 -12 20 5 21
5 5 -5 -10 -7 -26 -8 -35 -4 -35 14 -53 12 -46 -8 4 -14 0 -18 -23 -18 -15 0
-34 -4 -42 -9 -18 -12 -24 -42 -8 -40 7 1 68 0 137 -2 69 -2 -701 -6 -1710 -9
-1710 -5 -1839 -6 -1895 -23 -94 -27 -215 -91 -277 -146 -31 -28 -58 -48 -61
-44 -2 5 -3 3 -1 -3 1 -6 -13 -30 -32 -54 -87 -110 -136 -238 -153 -398 -6
-56 -12 -209 -13 -340 -2 -217 -3 -225 -8 -97 -4 88 -7 113 -8 68 -1 -40 -4
-73 -6 -73 -2 0 -11 -3 -19 -6 -12 -4 -17 3 -20 28 -3 28 -5 30 -11 13 -8 -22
-44 -50 -53 -41 -8 7 -33 -20 -33 -36 0 -26 -17 -39 -55 -43 -22 -3 -44 -10
-49 -15 -6 -6 -20 -3 -37 7 -33 20 -60 5 -52 -27 3 -11 0 -20 -6 -20 -12 0
-13 2 -15 43 -1 16 3 27 11 27 6 0 16 7 21 16 8 14 12 14 30 3 18 -12 23 -10
40 9 11 12 29 22 40 22 11 0 24 5 27 10 3 6 0 10 -7 10 -7 0 -24 3 -38 6 -20
4 -22 3 -10 -5 12 -9 11 -11 -7 -11 -14 0 -23 -6 -23 -16 0 -10 -6 -13 -19 -9
-10 3 -31 1 -45 -5 l-27 -10 21 30 c18 26 19 30 5 30 -10 0 -13 -5 -9 -12 5
-8 2 -9 -9 -5 -14 5 -17 0 -17 -28 0 -18 -4 -37 -10 -40 -5 -3 -9 -43 -9 -88
1 -45 -3 -334 -8 -642 l-10 -560 -1 1040 c-2 980 -1 1045 17 1130 23 113 74
241 137 347 57 95 208 254 299 315 157 105 347 176 520 193 44 4 962 7 2040 6
1720 -2 1968 -4 2028 -18z m-83 -148 c0 -5 -5 -10 -11 -10 -5 0 -7 -5 -3 -11
5 -8 9 -8 14 1 5 8 10 9 14 2 3 -6 2 -14 -4 -17 -15 -9 -40 14 -33 31 6 16 23
19 23 4z m30 0 c0 -5 -2 -10 -4 -10 -3 0 -8 5 -11 10 -3 6 -1 10 4 10 6 0 11
-4 11 -10z m-135 -89 c-3 -6 -11 -11 -17 -11 -6 0 -6 6 2 15 14 17 26 13 15
-4z m-69 -80 c-4 -6 -14 -11 -22 -11 -8 0 -12 5 -9 10 4 6 11 7 17 4 8 -5 9
-1 4 12 -5 14 -4 16 5 7 6 -6 8 -16 5 -22z m24 -6 c-17 -20 -1 -19 22 2 29 26
21 9 -10 -20 -24 -23 -28 -24 -27 -10 1 20 13 43 22 43 3 0 0 -7 -7 -15z m395
-106 c33 -31 70 -59 81 -63 11 -3 42 -31 68 -61 25 -30 151 -148 279 -262 356
-319 371 -334 364 -365 -9 -33 -61 -86 -93 -94 -21 -5 -36 4 -92 57 -37 35
-159 145 -272 245 -456 402 -540 480 -540 500 0 6 24 38 53 71 60 69 46 71
152 -28z m-735 -79 c0 -5 -4 -10 -10 -10 -5 0 -10 5 -10 10 0 6 5 10 10 10 6
0 10 -4 10 -10z m224 -252 c-5 -7 -121 -138 -258 -292 -138 -153 -265 -294
-281 -313 -32 -37 -7 -30 -415 -117 -244 -52 -493 -109 -535 -123 -188 -61
-325 -197 -370 -368 -8 -33 -15 -85 -15 -117 0 -54 -2 -59 -27 -70 -205 -82
-317 -199 -358 -369 -8 -35 -15 -94 -15 -130 l0 -65 -48 -12 c-195 -51 -339
-196 -378 -384 -13 -63 -17 -224 -5 -212 3 2 12 -19 21 -48 20 -64 57 -124
107 -175 21 -20 33 -34 28 -31 -6 4 -11 -2 -11 -12 0 -15 3 -17 16 -7 8 6 2
-4 -15 -23 -66 -77 -100 -110 -110 -106 -6 2 -11 -4 -12 -13 -2 -19 -101 -313
-108 -320 -3 -2 -3 11 0 30 5 33 5 33 -5 5 -5 -16 -7 -33 -4 -38 7 -12 -36
-149 -45 -144 -3 2 -6 -12 -7 -31 0 -20 -7 -41 -16 -47 -8 -6 -13 -18 -10 -26
2 -9 -2 -7 -11 5 -13 17 -13 22 -1 39 16 24 18 40 4 31 -5 -3 -10 3 -10 14 0
12 -4 21 -10 21 -5 0 -10 -7 -10 -15 0 -18 -31 -20 -49 -2 -11 10 -12 9 -6 -3
4 -8 15 -23 23 -33 14 -16 14 -17 -1 -11 -9 3 -17 10 -17 16 0 5 -5 6 -12 2
-7 -4 -8 -3 -4 5 4 6 2 18 -4 26 -9 11 -9 15 -1 15 6 0 11 5 11 10 0 6 -8 5
-19 -2 -16 -10 -18 -15 -8 -28 9 -12 -24 11 -43 30 -11 11 -69 48 -121 78 -70
40 -226 91 -301 99 -31 3 -56 9 -54 12 2 3 -55 3 -127 0 -142 -7 -268 -34
-349 -75 l-48 -23 0 1453 c0 1415 1 1455 20 1530 26 102 62 168 131 237 60 60
139 105 222 125 76 18 3682 20 3671 2z m380 -75 c71 -64 83 -79 74 -92 -10
-13 -10 -14 1 -4 11 9 22 5 52 -19 32 -26 37 -34 27 -47 -10 -13 -10 -14 2 -4
11 10 25 2 74 -44 34 -31 78 -71 98 -90 37 -35 41 -63 9 -63 -13 0 -14 -2 -2
-9 9 -6 19 -4 29 5 16 17 13 18 91 -56 65 -62 69 -52 -65 -197 -50 -54 -130
-143 -178 -198 -48 -55 -98 -109 -109 -120 -12 -11 -74 -79 -137 -150 -63 -72
-129 -146 -147 -165 -17 -19 -40 -45 -51 -57 -10 -13 -46 -51 -78 -86 -108
-116 -221 -242 -309 -343 -27 -32 -64 -73 -80 -90 l-31 -33 -235 -1 c-263 -1
-370 -9 -416 -34 -18 -9 -37 -16 -44 -16 -6 0 -39 -20 -73 -44 -96 -68 -147
-142 -181 -261 -23 -76 -16 -207 13 -284 12 -30 18 -59 15 -64 -3 -6 -1 -7 5
-3 7 4 12 1 12 -6 0 -8 29 -44 64 -80 36 -38 57 -65 47 -64 -9 0 -19 5 -23 11
-5 6 -12 5 -19 -2 -21 -21 -19 -40 5 -37 11 1 21 3 21 4 0 2 10 4 23 5 13 1
21 -2 19 -9 -3 -6 -10 -10 -16 -8 -7 1 -10 -2 -6 -8 3 -6 -18 -36 -48 -68 -29
-31 -69 -75 -88 -97 -19 -21 -60 -66 -91 -100 -63 -66 -95 -103 -118 -133 -42
-55 -92 -102 -102 -96 -7 4 -8 3 -4 -5 10 -15 -13 -43 -28 -34 -6 3 -8 2 -3
-2 8 -10 -22 -47 -33 -40 -4 3 -7 -1 -6 -9 1 -12 -127 -156 -140 -156 -3 0 -3
4 1 9 3 6 -3 9 -12 9 -10 -1 -37 10 -60 25 -24 15 -47 27 -53 27 -6 0 -8 5 -4
11 4 8 -1 9 -16 4 -17 -5 -21 -4 -15 5 6 9 4 11 -4 5 -27 -16 -64 19 -98 95
-19 41 -43 85 -55 97 -11 12 -17 26 -14 32 4 5 1 13 -5 17 -8 4 -9 3 -5 -4 9
-14 -6 -16 -20 -2 -14 14 -123 50 -153 50 -18 0 -40 16 -78 57 -29 31 -53 60
-53 63 0 3 88 105 196 226 108 120 321 361 473 534 152 173 359 408 461 521
102 113 230 257 285 319 222 253 650 737 694 785 20 22 90 101 156 175 66 74
187 209 268 299 82 91 159 177 170 192 12 16 25 28 29 28 4 1 45 -34 92 -76z
m-1270 -930 c-337 -381 -438 -495 -481 -542 l-49 -54 -53 19 c-197 70 -249
327 -94 464 60 52 122 74 343 122 102 22 232 50 290 63 58 13 111 24 118 24 7
1 -26 -43 -74 -96z m-3484 77 c0 -5 -4 -10 -10 -10 -5 0 -10 5 -10 10 0 6 5
10 10 10 6 0 10 -4 10 -10z m40 0 c0 -5 -4 -10 -10 -10 -5 0 -10 5 -10 10 0 6
5 10 10 10 6 0 10 -4 10 -10z m30 -34 c0 -3 -4 -8 -10 -11 -5 -3 -10 -1 -10 4
0 6 5 11 10 11 6 0 10 -2 10 -4z m-353 -68 c-2 -13 -4 -3 -4 22 0 25 2 35 4
23 2 -13 2 -33 0 -45z m83 26 c0 -8 -4 -12 -10 -9 -5 3 -10 10 -10 16 0 5 5 9
10 9 6 0 10 -7 10 -16z m105 -23 c-2 -2 -11 3 -19 12 -8 8 -12 17 -9 21 3 3
12 -2 19 -12 7 -9 11 -19 9 -21z m-55 15 c0 -11 -19 -15 -25 -6 -3 5 1 10 9
10 9 0 16 -2 16 -4z m257 -48 c-3 -7 -5 -2 -5 12 0 14 2 19 5 13 2 -7 2 -19 0
-25z m-267 12 c8 -5 11 -10 5 -10 -5 0 -17 5 -25 10 -8 5 -10 10 -5 10 6 0 17
-5 25 -10z m5455 -539 c149 -146 318 -313 378 -372 l107 -106 0 -632 0 -632
-467 3 c-424 4 -473 6 -520 22 -29 11 -50 23 -47 27 3 5 -2 6 -10 3 -32 -12
-225 124 -209 148 3 6 1 8 -5 4 -10 -6 -58 47 -81 92 l-12 22 143 2 c79 1 225
3 326 3 l184 0 29 33 c37 41 39 89 5 129 l-24 28 -364 5 c-403 6 -382 2 -461
79 l-48 46 -367 5 c-360 5 -368 5 -412 28 -96 50 -149 127 -157 226 -3 38 0
78 7 101 18 54 81 118 143 146 l52 24 584 1 585 2 23 26 c38 44 27 104 -30
165 -50 52 -144 119 -180 126 -17 4 -35 9 -39 12 -4 2 77 97 180 211 103 115
218 244 257 289 l70 81 45 -41 c25 -23 167 -161 315 -306z m-5830 -129 c-8 -8
-45 30 -70 73 -52 89 -38 209 33 287 l37 41 3 -198 c1 -109 0 -200 -3 -203z
m3159 65 c25 -29 72 -69 105 -88 33 -18 61 -37 61 -40 0 -6 -75 -95 -175 -206
-38 -43 -83 -93 -98 -112 -25 -30 -31 -33 -52 -23 -47 21 -114 93 -132 140
-24 64 -23 155 3 212 26 56 84 113 148 145 72 36 88 33 140 -28z m-326 -627
c4 0 13 -4 21 -9 18 -12 -6 -45 -139 -191 -52 -58 -115 -128 -139 -155 l-43
-50 -48 52 c-147 160 -44 417 181 451 l54 8 53 -53 c29 -29 56 -53 60 -53z
m1352 -785 c0 -11 11 -15 39 -15 22 0 46 7 55 15 8 8 21 15 28 15 8 -1 6 -6
-6 -15 -15 -11 -17 -18 -8 -27 8 -8 15 -8 25 0 7 6 22 9 33 6 35 -8 154 -9
154 -1 0 5 5 5 10 2 6 -4 8 -15 5 -26 -4 -13 -2 -19 9 -19 11 0 16 9 16 26 0
16 5 24 13 21 6 -2 12 -14 11 -26 0 -11 5 -21 12 -21 8 0 11 6 8 15 -7 17 13
20 36 5 13 -8 12 -10 -4 -10 -16 0 -17 -3 -8 -12 7 -7 12 -27 12 -45 0 -19 5
-33 13 -34 6 0 3 -4 -8 -9 -15 -6 -9 -8 23 -8 24 0 49 -5 55 -11 8 -8 6 -11
-9 -11 -11 0 -24 4 -30 9 -5 5 -18 5 -29 1 -18 -8 -17 -9 6 -9 15 -1 38 -10
53 -22 14 -11 31 -17 37 -13 7 4 9 3 6 -3 -4 -6 4 -14 17 -17 13 -3 31 -9 40
-12 9 -3 16 -1 16 5 0 6 -11 13 -25 17 -27 7 -32 18 -14 30 14 8 50 -36 44
-54 -3 -7 6 -17 19 -22 13 -4 26 -16 30 -26 6 -17 6 -17 -12 -1 -30 27 -212
106 -274 118 -32 6 -58 15 -58 18 0 11 -282 11 -350 0 -36 -6 -80 -11 -98 -12
-18 0 -28 -3 -22 -7 5 -3 -16 -14 -47 -23 -31 -10 -90 -34 -130 -53 -40 -19
-76 -34 -79 -33 -3 0 -11 -7 -18 -17 -7 -9 -18 -14 -24 -10 -13 8 -42 -3 -42
-16 0 -6 7 -5 15 2 9 7 18 10 21 7 3 -3 -7 -13 -23 -23 -15 -10 -36 -26 -46
-36 -9 -10 -25 -15 -35 -12 -13 4 -14 3 -4 -4 11 -7 9 -13 -10 -28 -12 -11
-37 -35 -54 -54 -36 -41 -54 -48 -54 -20 0 22 -16 27 -23 8 -2 -7 -8 -10 -12
-6 -4 4 -2 14 4 22 17 20 -5 32 -27 14 -9 -7 8 16 39 52 31 36 66 69 77 75 12
5 22 13 22 17 0 5 7 8 16 8 8 0 12 5 9 10 -4 6 -12 7 -18 3 -14 -8 4 15 60 75
36 40 44 44 57 33 20 -17 21 -31 1 -31 -8 0 -15 8 -15 17 0 12 -3 14 -11 6
-15 -15 -3 -33 21 -33 10 0 20 -5 22 -10 4 -13 48 -22 48 -10 0 5 8 11 18 14
14 4 14 5 -3 4 -52 -1 -70 2 -56 11 7 5 11 14 7 20 -5 7 -1 9 8 5 9 -3 16 -10
16 -14 0 -4 12 -5 28 -2 l27 6 -25 6 c-30 7 -34 35 -5 35 11 0 19 6 18 13 -3
11 4 14 23 11 4 0 11 5 15 13 7 10 9 10 9 1 0 -7 5 -13 10 -13 6 0 8 11 4 25
-7 28 10 35 21 8 6 -16 8 -16 15 4 6 15 15 20 29 16 12 -3 21 -1 21 6 0 6 -8
11 -17 11 -12 1 -7 6 12 15 17 7 24 14 18 14 -7 1 -13 6 -13 12 0 11 45 8 103
-6 24 -7 27 -5 27 20 0 27 1 27 25 11 34 -23 48 -21 35 4 -9 16 -8 20 5 20 8
0 15 -7 15 -15z m519 -39 c-3 -3 -11 5 -18 17 -13 21 -12 21 5 5 10 -10 16
-20 13 -22z m-845 9 c-4 -8 -11 -15 -16 -15 -6 0 -5 6 2 15 7 8 14 15 16 15 2
0 1 -7 -2 -15z m63 -1 c-3 -3 -12 -4 -19 -1 -8 3 -5 6 6 6 11 1 17 -2 13 -5z
m-37 -34 c-8 -5 -18 -6 -22 -4 -4 3 -8 -2 -8 -10 0 -9 -5 -16 -10 -16 -22 0 9
36 32 37 17 2 19 0 8 -7z m50 -5 c0 -8 -4 -15 -9 -15 -13 0 -22 16 -14 24 11
11 23 6 23 -9z m751 6 c-8 -5 -10 -14 -6 -22 6 -11 5 -11 -5 -2 -14 12 -6 33
13 33 8 0 7 -3 -2 -9z m72 -26 c-3 -9 -8 -14 -10 -11 -3 3 -2 9 2 15 9 16 15
13 8 -4z m-972 -24 c-6 -10 -7 -22 -3 -26 4 -5 1 -5 -6 -1 -9 5 -9 12 -2 27 6
10 13 19 16 19 2 0 0 -8 -5 -19z m1003 3 c3 -8 2 -12 -4 -9 -6 3 -10 10 -10
16 0 14 7 11 14 -7z m-970 -18 c-21 -15 -30 -14 -19 3 3 6 14 11 23 11 13 0
13 -2 -4 -14z m886 4 c0 -5 -5 -10 -11 -10 -5 0 -7 5 -4 10 3 6 8 10 11 10 2
0 4 -4 4 -10z m65 0 c3 -5 1 -10 -4 -10 -6 0 -11 5 -11 10 0 6 2 10 4 10 3 0
8 -4 11 -10z m-35 -30 c8 -5 11 -12 8 -16 -4 -3 -14 1 -23 10 -18 17 -9 21 15
6z m-980 -4 c0 -3 -4 -8 -10 -11 -5 -3 -10 -1 -10 4 0 6 5 11 10 11 6 0 10 -2
10 -4z m1169 -122 c-5 -6 -5 -15 -1 -19 4 -5 1 -5 -6 -1 -10 6 -10 11 -2 21 7
8 7 15 1 19 -5 3 -12 0 -14 -6 -3 -8 -6 -6 -6 5 -1 9 -5 17 -10 17 -5 0 -11
10 -14 21 -4 14 -11 20 -21 16 -8 -3 -18 -1 -22 5 -4 7 -3 8 4 4 13 -8 16 5 5
20 -5 5 15 -13 44 -41 34 -33 48 -54 42 -61z m-2427 -47 c20 -9 59 -23 88 -30
50 -13 52 -15 75 -71 37 -90 88 -144 184 -193 78 -39 81 -42 59 -54 -26 -13
-447 -280 -491 -310 l-27 -20 -91 78 c-50 43 -99 84 -110 92 -10 7 -19 19 -20
25 0 6 44 144 98 306 l98 296 51 -51 c28 -28 66 -59 86 -68z m2373 65 c-3 -3
-11 0 -18 7 -9 10 -8 11 6 5 10 -3 15 -9 12 -12z m91 -41 c-4 -5 0 -11 6 -13
7 -3 -2 -5 -20 -5 -33 0 -33 1 -10 13 28 16 31 17 24 5z m-55 -28 c13 -16 12
-17 -3 -4 -10 7 -18 15 -18 17 0 8 8 3 21 -13z m-376 -57 c142 -38 295 -138
391 -254 91 -111 142 -233 159 -386 5 -47 13 -65 36 -89 29 -29 32 -29 87 -21
110 17 182 11 244 -19 68 -34 153 -122 169 -177 11 -38 10 -43 -23 -97 -48
-78 -131 -145 -216 -173 -59 -20 -94 -23 -290 -28 -265 -6 -244 3 -374 -152
-121 -144 -229 -250 -291 -288 -91 -55 -84 -64 -83 120 0 175 -8 214 -57 266
-53 57 -22 55 -768 53 -378 -1 -730 1 -784 5 l-97 7 6 36 c3 20 26 77 51 128
131 265 415 400 696 329 126 -32 150 -14 169 123 21 155 80 273 198 394 123
127 240 192 417 233 78 18 278 12 360 -10z m440 6 c-3 -3 -11 0 -18 7 -9 10
-8 11 6 5 10 -3 15 -9 12 -12z m-3528 -28 c130 -27 225 -74 335 -166 54 -46
129 -139 154 -191 l17 -36 -72 -228 c-40 -125 -81 -253 -91 -283 -9 -31 -21
-71 -25 -90 -9 -42 -23 -59 -95 -115 -79 -60 -148 -93 -226 -105 -259 -42
-510 113 -540 334 l-7 46 184 0 c157 0 190 3 224 19 55 25 93 66 123 130 44
95 18 208 -67 284 -67 60 -108 67 -403 67 -289 0 -272 -6 -217 75 142 210 430
316 706 259z m3658 -4 c3 -6 -1 -7 -9 -4 -18 7 -21 14 -7 14 6 0 13 -4 16 -10z
m-74 -17 c13 -16 12 -17 -3 -4 -10 7 -18 15 -18 17 0 8 8 3 21 -13z m-3011 -9
c0 -8 -4 -12 -10 -9 -5 3 -10 10 -10 16 0 5 5 9 10 9 6 0 10 -7 10 -16z m3064
-27 c4 4 4 0 0 -10 -3 -9 -2 -17 4 -17 6 0 12 6 15 13 2 6 4 0 3 -15 -1 -31
-7 -28 -38 15 -12 18 -15 26 -7 20 9 -7 19 -10 23 -6z m59 -12 c-3 -9 -8 -14
-10 -11 -3 3 -2 9 2 15 9 16 15 13 8 -4z m-3119 -31 c3 -8 2 -12 -4 -9 -6 3
-10 10 -10 16 0 14 7 11 14 -7z m1474 -37 c15 6 15 5 3 -11 -11 -13 -16 -14
-22 -4 -5 7 -8 18 -8 23 0 6 3 5 5 -2 3 -7 13 -9 22 -6z m1652 -31 c0 -5 -7
-1 -15 10 -8 10 -14 24 -14 29 0 6 6 1 14 -9 8 -11 15 -24 15 -30z m-1657 -27
c-10 -17 -24 -36 -32 -42 -12 -10 -13 -9 -6 2 4 7 8 23 9 35 1 11 6 21 13 21
6 0 15 3 19 8 16 15 14 6 -3 -24z m1726 -79 c3 -3 7 -14 9 -25 3 -23 -54 76
-63 108 -3 12 6 0 21 -28 15 -27 29 -52 33 -55z m-1780 -6 c-7 -9 -14 -23 -15
-31 -2 -8 -6 -18 -10 -21 -4 -4 -4 1 -1 11 4 9 2 17 -3 17 -4 0 1 11 13 24 24
27 38 27 16 0z m1839 -70 c-3 -14 -5 -12 -10 9 -3 19 -2 25 4 19 6 -6 8 -18 6
-28z m-31 -6 c-3 -8 -6 -5 -6 6 -1 11 2 17 5 13 3 -3 4 -12 1 -19z m40 -140
c-3 -7 -5 -2 -5 12 0 14 2 19 5 13 2 -7 2 -19 0 -25z m-2160 6 c-3 -3 -12 -4
-19 -1 -8 3 -5 6 6 6 11 1 17 -2 13 -5z m2200 0 c-3 -3 -12 -4 -19 -1 -8 3 -5
6 6 6 11 1 17 -2 13 -5z m-2286 -20 c-25 -8 -47 -12 -49 -9 -5 5 56 23 78 23
8 0 -5 -6 -29 -14z m-141 -47 c-14 -8 -27 -12 -30 -10 -7 6 23 23 40 23 8 0 4
-6 -10 -13z m-70 -27 c8 -5 11 -10 5 -10 -5 0 -17 5 -25 10 -8 5 -10 10 -5 10
6 0 17 -5 25 -10z m-657 -73 l48 -39 -88 -58 c-48 -31 -89 -56 -90 -55 -8 6
64 202 72 197 6 -3 32 -23 58 -45z m593 38 c-3 -24 -12 -27 -27 -8 -9 11 -10
14 -1 9 6 -4 12 -2 12 3 0 6 4 11 9 11 5 0 8 -7 7 -15z m-26 -25 c0 -5 -5 -10
-11 -10 -5 0 -7 -5 -3 -11 4 -7 -2 -6 -17 2 -22 11 -23 11 -10 -4 11 -15 11
-17 -2 -17 -8 0 -21 -8 -28 -17 -10 -11 -10 -14 -1 -9 24 14 11 -13 -25 -56
-94 -109 -166 -233 -191 -333 -35 -133 -26 -120 -79 -119 l-48 1 -12 71 c-9
57 -32 124 -69 208 -3 6 44 42 103 79 59 37 131 82 158 100 67 43 115 67 115
58 0 -4 7 3 16 15 9 13 22 21 30 18 8 -3 13 0 11 7 -1 7 8 12 21 11 12 0 22 3
22 8 0 4 5 8 10 8 6 0 10 -4 10 -10z m-651 -467 c37 -110 46 -103 -140 -103
l-161 0 134 89 c73 49 136 86 140 82 3 -3 16 -34 27 -68z"/>
		<path d="M8106 7752 c-3 -5 7 -20 22 -33 18 -16 21 -17 10 -4 -9 11 -17 24
-16 28 0 14 -10 19 -16 9z"/>
		<path d="M8223 7665 c0 -8 4 -12 9 -9 5 3 6 10 3 15 -9 13 -12 11 -12 -6z"/>
		<path d="M8173 7656 c-3 -6 -3 -8 2 -4 4 4 13 3 20 -2 8 -7 12 -5 12 3 0 16
-25 18 -34 3z"/>
		<path d="M6968 8053 c6 -2 18 -2 25 0 6 3 1 5 -13 5 -14 0 -19 -2 -12 -5z"/>
		<path d="M6881 7944 c0 -11 3 -14 6 -6 3 7 2 16 -1 19 -3 4 -6 -2 -5 -13z"/>
		<path d="M6675 7810 c-3 -5 1 -10 9 -10 9 0 16 5 16 10 0 6 -4 10 -9 10 -6 0
-13 -4 -16 -10z"/>
		<path d="M6050 7670 c0 -5 5 -10 11 -10 5 0 7 5 4 10 -3 6 -8 10 -11 10 -2 0
-4 -4 -4 -10z"/>
		<path d="M6390 7662 c-13 -15 -13 -19 8 -39 28 -28 42 -29 35 -3 -3 11 -12 20
-20 20 -10 0 -12 6 -8 20 7 24 5 24 -15 2z"/>
		<path d="M6476 7671 c-4 -5 3 -7 14 -4 23 6 26 13 6 13 -8 0 -17 -4 -20 -9z"/>
		<path d="M6288 7663 c6 -2 18 -2 25 0 6 3 1 5 -13 5 -14 0 -19 -2 -12 -5z"/>
		<path d="M6430 7660 c0 -5 4 -10 9 -10 6 0 13 5 16 10 3 6 -1 10 -9 10 -9 0
-16 -4 -16 -10z"/>
		<path d="M6205 7640 c-3 -5 1 -10 9 -10 9 0 16 5 16 10 0 6 -4 10 -9 10 -6 0
-13 -4 -16 -10z"/>
		<path d="M6316 7634 c-4 -10 -1 -14 6 -12 15 5 23 28 10 28 -5 0 -13 -7 -16
-16z"/>
		<path d="M6248 7633 c6 -2 18 -2 25 0 6 3 1 5 -13 5 -14 0 -19 -2 -12 -5z"/>
		<path d="M6180 7610 c0 -5 5 -10 11 -10 5 0 7 5 4 10 -3 6 -8 10 -11 10 -2 0
-4 -4 -4 -10z"/>
		<path d="M6340 7610 c-11 -7 -4 -10 25 -9 31 0 36 2 20 9 -26 11 -28 11 -45 0z"/>
		<path d="M6018 7603 c7 -3 16 -2 19 1 4 3 -2 6 -13 5 -11 0 -14 -3 -6 -6z"/>
		<path d="M6233 7603 c9 -2 23 -2 30 0 6 3 -1 5 -18 5 -16 0 -22 -2 -12 -5z"/>
		<path d="M2236 6747 c3 -10 9 -15 12 -12 3 3 0 11 -7 18 -10 9 -11 8 -5 -6z"/>
		<path d="M2385 6630 c3 -5 8 -10 11 -10 2 0 4 5 4 10 0 6 -5 10 -11 10 -5 0
-7 -4 -4 -10z"/>
		<path d="M2408 6603 c7 -3 16 -2 19 1 4 3 -2 6 -13 5 -11 0 -14 -3 -6 -6z"/>
		<path d="M2340 6590 c0 -5 7 -10 15 -10 8 0 15 5 15 10 0 6 -7 10 -15 10 -8 0
-15 -4 -15 -10z"/>
		<path d="M2408 6573 c7 -3 16 -2 19 1 4 3 -2 6 -13 5 -11 0 -14 -3 -6 -6z"/>
		<path d="M2288 6563 c7 -3 16 -2 19 1 4 3 -2 6 -13 5 -11 0 -14 -3 -6 -6z"/>
		<path d="M2098 6553 c7 -3 16 -2 19 1 4 3 -2 6 -13 5 -11 0 -14 -3 -6 -6z"/>
		<path d="M2300 6551 l-65 -6 57 -7 c60 -7 98 -2 98 13 0 5 -6 8 -12 7 -7 -1
-42 -4 -78 -7z"/>
		<path d="M2071 6514 c0 -11 3 -14 6 -6 3 7 2 16 -1 19 -3 4 -6 -2 -5 -13z"/>
		<path d="M2220 6505 c0 -8 5 -15 10 -15 6 0 10 5 10 11 0 10 52 9 100 -3 8 -1
17 2 20 7 3 6 -23 11 -67 13 -61 2 -73 0 -73 -13z"/>
		<path d="M2259 6448 c-7 -18 -14 -36 -17 -40 -2 -5 0 -8 5 -8 8 0 53 64 53 75
0 3 -6 5 -14 5 -8 0 -20 -15 -27 -32z"/>
		<path d="M2200 6430 c0 -5 9 -10 20 -10 11 0 20 5 20 10 0 6 -9 10 -20 10 -11
0 -20 -4 -20 -10z"/>
		<path d="M2170 6400 c0 -5 6 -10 14 -10 8 0 18 5 21 10 3 6 -3 10 -14 10 -12
0 -21 -4 -21 -10z"/>
		<path d="M3169 5693 c-13 -15 -12 -15 9 -4 23 12 28 21 13 21 -5 0 -15 -7 -22
-17z"/>
		<path d="M2933 5523 c37 -2 97 -2 135 0 37 2 6 3 -68 3 -74 0 -105 -1 -67 -3z"/>
		<path d="M3418 5523 c23 -2 61 -2 85 0 23 2 4 4 -43 4 -47 0 -66 -2 -42 -4z"/>
		<path d="M4009 5427 c5 -5 19 -7 32 -5 20 3 19 5 -9 9 -20 3 -29 2 -23 -4z"/>
		<path d="M3896 5245 c-3 -9 -6 -24 -5 -33 0 -9 5 -4 10 12 9 32 6 48 -5 21z"/>
		<path d="M3748 5113 c7 -3 16 -2 19 1 4 3 -2 6 -13 5 -11 0 -14 -3 -6 -6z"/>
		<path d="M3810 4685 c0 -5 5 -17 10 -25 5 -8 10 -10 10 -5 0 6 -5 17 -10 25
-5 8 -10 11 -10 5z"/>
		<path d="M4021 4654 c0 -11 3 -14 6 -6 3 7 2 16 -1 19 -3 4 -6 -2 -5 -13z"/>
		<path d="M4090 4602 c0 -5 10 -17 21 -28 22 -19 22 -19 10 3 -12 24 -31 39
-31 25z"/>
		<path d="M3822 4546 c7 -8 15 -12 17 -11 5 6 -10 25 -20 25 -5 0 -4 -6 3 -14z"/>
		<path d="M3785 4530 c-3 -6 1 -7 9 -4 18 7 21 14 7 14 -6 0 -13 -4 -16 -10z"/>
		<path d="M3662 4514 c10 -10 20 -16 22 -13 3 3 -5 11 -17 18 -21 13 -21 12 -5
-5z"/>
		<path d="M3733 4513 c-13 -2 -23 -9 -23 -15 0 -5 7 -7 16 -4 9 3 22 6 30 6 8
0 14 5 14 10 0 6 -3 9 -7 9 -5 -1 -18 -4 -30 -6z"/>
		<path d="M3400 4495 c-14 -8 -20 -14 -14 -15 5 0 19 7 30 15 24 18 16 19 -16
0z"/>
		<path d="M3845 3980 c-4 -12 -5 -24 -2 -27 3 -2 8 5 12 17 4 12 5 24 2 27 -3
2 -8 -5 -12 -17z"/>
		<path d="M3648 3968 c12 -12 25 -19 28 -15 4 4 -1 14 -12 22 -29 22 -41 18
-16 -7z"/>
		<path d="M7145 7199 c-4 -6 -5 -12 -2 -15 2 -3 7 2 10 11 7 17 1 20 -8 4z"/>
		<path d="M7496 6905 c9 -14 21 -25 27 -25 6 0 0 11 -13 25 -13 14 -25 25 -27
25 -2 0 4 -11 13 -25z"/>
		<path d="M7470 6901 c0 -6 4 -13 10 -16 6 -3 7 1 4 9 -7 18 -14 21 -14 7z"/>
		<path d="M7536 6855 c10 -8 23 -15 28 -15 6 0 1 7 -10 15 -10 8 -23 15 -28 15
-6 0 -1 -7 10 -15z"/>
		<path d="M7546 6805 c4 -8 8 -15 10 -15 2 0 4 7 4 15 0 8 -4 15 -10 15 -5 0
-7 -7 -4 -15z"/>
		<path d="M5456 4682 c-4 -12 -2 -31 4 -42 9 -17 14 -19 26 -9 8 6 17 9 21 5 3
-3 1 -6 -5 -6 -7 0 -12 -9 -12 -20 0 -15 5 -19 23 -16 12 3 25 5 30 5 4 1 -4
13 -17 29 -13 15 -33 38 -44 51 l-19 25 -7 -22z m24 -16 c0 -3 -4 -8 -10 -11
-5 -3 -10 -1 -10 4 0 6 5 11 10 11 6 0 10 -2 10 -4z"/>
		<path d="M5306 4243 c-6 -14 -5 -15 5 -6 7 7 10 15 7 18 -3 3 -9 -2 -12 -12z"/>
		<path d="M5059 3983 c-13 -16 -12 -17 4 -4 16 13 21 21 13 21 -2 0 -10 -8 -17
-17z"/>
		<path d="M4965 3900 c4 -6 11 -8 16 -5 14 9 11 15 -7 15 -8 0 -12 -5 -9 -10z"/>
		<path d="M6858 4300 c-15 -17 -15 -20 0 -32 13 -10 14 -10 8 0 -4 7 -2 20 5
28 6 8 10 16 7 19 -2 2 -11 -4 -20 -15z"/>
		<path d="M6919 4224 c15 -11 26 -13 33 -6 6 6 6 12 -3 17 -8 5 -10 4 -5 -3 4
-7 3 -12 -3 -12 -5 0 -13 5 -16 10 -3 6 -11 10 -18 10 -6 0 -1 -7 12 -16z"/>
		<path d="M7030 4141 c0 -6 4 -12 8 -15 5 -3 9 1 9 9 0 8 -4 15 -9 15 -4 0 -8
-4 -8 -9z"/>
		<path d="M5890 4222 c6 -13 14 -21 18 -18 3 4 -2 14 -12 24 -18 16 -18 16 -6
-6z"/>
		<path d="M6365 4210 c4 -6 11 -8 16 -5 14 9 11 15 -7 15 -8 0 -12 -5 -9 -10z"/>
		<path d="M5820 4202 c0 -5 7 -13 16 -16 10 -4 14 -1 12 6 -5 15 -28 23 -28 10z"/>
		<path d="M5760 4180 c0 -5 4 -10 9 -10 6 0 13 5 16 10 3 6 -1 10 -9 10 -9 0
-16 -4 -16 -10z"/>
		<path d="M6305 4170 c-3 -5 -1 -10 4 -10 6 0 11 5 11 10 0 6 -2 10 -4 10 -3 0
-8 -4 -11 -10z"/>
		<path d="M6335 4170 c-3 -5 1 -10 10 -10 9 0 13 5 10 10 -3 6 -8 10 -10 10 -2
0 -7 -4 -10 -10z"/>
		<path d="M6397 4159 c7 -7 15 -10 18 -7 3 3 -2 9 -12 12 -14 6 -15 5 -6 -5z"/>
		<path d="M5858 4153 c7 -3 16 -2 19 1 4 3 -2 6 -13 5 -11 0 -14 -3 -6 -6z"/>
		<path d="M5788 4143 c6 -2 18 -2 25 0 6 3 1 5 -13 5 -14 0 -19 -2 -12 -5z"/>
		<path d="M5757 4133 c-13 -13 -6 -18 26 -20 17 0 25 1 17 4 -8 3 -20 10 -26
14 -6 5 -14 6 -17 2z"/>
		<path d="M5469 4044 c-23 -25 -27 -33 -13 -26 26 14 38 4 22 -17 -10 -13 -10
-14 2 -3 18 16 30 15 30 -2 0 -8 -7 -17 -16 -20 -8 -3 -12 -10 -9 -16 9 -15
25 -12 25 5 0 9 7 18 15 21 11 4 8 11 -13 29 -23 20 -25 25 -13 39 28 33 4 25
-30 -10z"/>
		<path d="M5687 4069 c7 -7 15 -10 18 -7 3 3 -2 9 -12 12 -14 6 -15 5 -6 -5z"/>
		<path d="M5513 4037 c2 -7 14 -14 26 -15 28 -4 20 13 -9 21 -14 3 -20 1 -17
-6z"/>
		<path d="M5450 3960 c0 -5 5 -10 10 -10 6 0 10 5 10 10 0 6 -4 10 -10 10 -5 0
-10 -4 -10 -10z"/>
		<path d="M5392 3948 c2 -6 13 -17 24 -24 18 -12 20 -11 22 14 1 18 -1 23 -7
13 -6 -9 -11 -10 -15 -2 -9 15 -29 14 -24 -1z"/>
		<path d="M5354 3918 c-4 -5 2 -19 13 -30 17 -17 21 -17 32 -4 10 12 9 14 -8 9
-12 -3 -21 -1 -21 5 0 6 8 12 18 14 14 3 13 5 -5 10 -13 3 -26 2 -29 -4z"/>
		<path d="M5322 3878 c-16 -16 -15 -25 3 -32 27 -10 46 4 34 25 -11 22 -20 24
-37 7z m24 -25 c-10 -10 -19 5 -10 18 6 11 8 11 12 0 2 -7 1 -15 -2 -18z"/>
		<path d="M6189 3521 c-21 -22 -29 -39 -29 -65 0 -39 -17 -55 -82 -76 -47 -14
-78 -53 -78 -95 0 -46 26 -73 90 -95 54 -18 55 -19 67 -72 18 -81 66 -114 126
-87 29 13 44 39 55 94 5 29 15 43 32 50 115 48 142 80 118 143 -14 38 -54 65
-110 77 -22 4 -28 12 -34 43 -19 105 -93 145 -155 83z m75 -197 c21 -8 21 -48
0 -65 -11 -9 -20 -10 -32 -2 -24 15 -27 45 -6 60 21 15 18 15 38 7z"/>
	</g>
</svg>
